0
SECTION
2
HEADER
9
$ACADVER
1
AC1015
9
$INSUNITS
70
4
9
$EXTMIN
10
0
20
0
30
0
9
$EXTMAX
10
30000
20
20000
30
0
0
ENDSEC
0
SECTION
2
TABLES
0
TABLE
2
LAYER
70
7
0
LAYER
2
0
70
0
62
7
6
CONTINUOUS
0
LAYER
2
WALLS
70
0
62
7
6
CONTINUOUS
0
LAYER
2
ROOMS
70
0
62
3
6
CONTINUOUS
0
LAYER
2
LABELS
70
0
62
4
6
CONTINUOUS
0
LAYER
2
FURNITURE
70
0
62
8
6
CONTINUOUS
0
LAYER
2
DIM
70
0
62
1
6
CONTINUOUS
0
LAYER
2
DEFPOINTS
70
0
62
8
6
CONTINUOUS
0
ENDTAB
0
ENDSEC
0
SECTION
2
BLOCKS
0
BLOCK
8
0
2
BED
70
0
10
0
20
0
30
0
3
BED
1

0
LWPOLYLINE
8
0
90
4
70
1
10
0
20
0
10
900
20
0
10
900
20
2000
10
0
20
2000
0
LINE
8
0
10
0
20
1600
30
0
11
900
21
1600
31
0
0
ENDBLK
8
0
0
ENDSEC
0
SECTION
2
ENTITIES
0
POLYLINE
8
WALLS
66
1
70
1
10
0
20
0
30
0
0
VERTEX
8
WALLS
10
0.0
20
0.0
30
0
0
VERTEX
8
WALLS
10
30000.0
20
0.0
30
0
0
VERTEX
8
WALLS
10
30000.0
20
20000.0
30
0
0
VERTEX
8
WALLS
10
0.0
20
20000.0
30
0
0
SEQEND
8
WALLS
0
LINE
8
WALLS
10
0
20
12000
30
0
11
2000
21
12000
31
0
0
LINE
8
WALLS
10
2000
20
12000
30
0
11
4000
21
12000
31
0
0
LINE
8
WALLS
10
4000
20
12000
30
0
11
6000
21
12000
31
0
0
LINE
8
WALLS
10
6900
20
12000
30
0
11
9933.333333333334
21
12000
31
0
0
LINE
8
WALLS
10
9933.333333333334
20
12000
30
0
11
12966.666666666668
21
12000
31
0
0
LINE
8
WALLS
10
12966.666666666668
20
12000
30
0
11
16000
21
12000
31
0
0
LINE
8
WALLS
10
16900
20
12000
30
0
11
19600
21
12000
31
0
0
LINE
8
WALLS
10
19600
20
12000
30
0
11
22300
21
12000
31
0
0
LINE
8
WALLS
10
22300
20
12000
30
0
11
25000
21
12000
31
0
0
LINE
8
WALLS
10
25900
20
12000
30
0
11
27266.666666666668
21
12000
31
0
0
LINE
8
WALLS
10
27266.666666666668
20
12000
30
0
11
28633.333333333332
21
12000
31
0
0
LINE
8
WALLS
10
28633.333333333332
20
12000
30
0
11
30000
21
12000
31
0
0
LINE
8
WALLS
10
7000
20
12000
30
0
11
7000
21
16000
31
0
0
LINE
8
WALLS
10
7000
20
16000
30
0
11
7000
21
20000
31
0
0
LINE
8
WALLS
10
15000
20
12000
30
0
11
15000
21
16000
31
0
0
LINE
8
WALLS
10
15000
20
16000
30
0
11
15000
21
20000
31
0
0
LINE
8
WALLS
10
22000
20
12000
30
0
11
22000
21
16000
31
0
0
LINE
8
WALLS
10
22000
20
16000
30
0
11
22000
21
20000
31
0
0
ARC
8
WALLS
10
6000
20
12000
30
0
40
900
50
0
51
90
0
LWPOLYLINE
8
ROOMS
90
4
70
1
10
0.0
20
12000.0
10
7000.0
20
12000.0
10
7000.0
20
20000.0
10
0.0
20
20000.0
0
TEXT
8
ROOMS
10
3500
20
15800
30
0
40
400
1
ห้องผู้ป่วย 301
72
1
11
3500
21
15800
31
0
0
LWPOLYLINE
8
ROOMS
90
4
70
1
10
7000.0
20
12000.0
10
15000.0
20
12000.0
10
15000.0
20
20000.0
10
7000.0
20
20000.0
0
TEXT
8
ROOMS
10
11000
20
15800
30
0
40
400
1
ห้องผู้ป่วย 302
72
1
11
11000
21
15800
31
0
0
LWPOLYLINE
8
ROOMS
90
4
70
1
10
15000.0
20
12000.0
10
22000.0
20
12000.0
10
22000.0
20
20000.0
10
15000.0
20
20000.0
0
TEXT
8
ROOMS
10
18500
20
15800
30
0
40
400
1
ห้องพยาบาล
72
1
11
18500
21
15800
31
0
0
LWPOLYLINE
8
ROOMS
90
4
70
1
10
22000.0
20
12000.0
10
30000.0
20
12000.0
10
30000.0
20
20000.0
10
22000.0
20
20000.0
0
TEXT
8
ROOMS
10
26000
20
15800
30
0
40
400
1
ห้องเก็บของ
72
1
11
26000
21
15800
31
0
0
MTEXT
8
LABELS
10
15000
20
6000
30
0
40
500
71
5
1
{\fTH Sarabun New|b1|i0;\H1.2x;ทางเดินกลาง}
0
INSERT
8
FURNITURE
2
BED
10
1000
20
13000
30
0
41
1
42
1
43
1
50
0
0
INSERT
8
FURNITURE
2
BED
10
13800
20
13200
30
0
41
0.9
42
0.9
43
1
50
90
0
LINE
8
DIM
10
0
20
-1200
30
0
11
30000
21
-1200
31
0
0
LINE
8
DIM
10
0
20
-1400
30
0
11
0
21
-1000
31
0
0
LINE
8
DIM
10
30000
20
-1400
30
0
11
30000
21
-1000
31
0
0
TEXT
8
DIM
10
15000
20
-1100
30
0
40
300
1
30000
72
1
11
15000
21
-1100
31
0
0
POINT
8
DEFPOINTS
10
0
20
-1200
30
0
0
HATCH
8
ROOMS
2
SOLID
70
1
91
0
0
ENDSEC
0
EOF
